<svg xmlns="http://www.w3.org/2000/svg" xmlns:xlink="http://www.w3.org/1999/xlink" width="33.551" height="33.551" viewBox="0 0 33.551 33.551">
  <defs>
    <clipPath id="clip-path">
      <rect id="Rectangle_1277" data-name="Rectangle 1277" width="33.551" height="33.551" transform="translate(0 0)" fill="none"/>
    </clipPath>
  </defs>
  <g id="Group_1296" data-name="Group 1296" transform="translate(0 0)">
    <g id="Group_1296-2" data-name="Group 1296" clip-path="url(#clip-path)">
      <path id="Path_12" data-name="Path 12" d="M16.775,33.551h0A16.775,16.775,0,1,1,33.55,16.776,16.775,16.775,0,0,1,16.775,33.551" fill="#313131"/>
      <path id="Path_13" data-name="Path 13" d="M24.106,27.787H9.444a3.685,3.685,0,0,1-3.681-3.68V9.445A3.685,3.685,0,0,1,9.444,5.764H24.106a3.685,3.685,0,0,1,3.68,3.681V24.107a3.684,3.684,0,0,1-3.68,3.68M9.444,6.969A2.479,2.479,0,0,0,6.968,9.445V24.107a2.478,2.478,0,0,0,2.476,2.475H24.106a2.479,2.479,0,0,0,2.477-2.475V9.445a2.479,2.479,0,0,0-2.477-2.476Z" fill="#fff"/>
      <path id="Path_14" data-name="Path 14" d="M16.775,22.426a5.651,5.651,0,1,1,4-1.655,5.613,5.613,0,0,1-4,1.655m0-10.1a4.446,4.446,0,1,0,4.446,4.446,4.451,4.451,0,0,0-4.446-4.446" fill="#fff"/>
      <path id="Path_15" data-name="Path 15" d="M24.871,8.824A1.085,1.085,0,1,1,23.787,7.74a1.084,1.084,0,0,1,1.084,1.084" fill="#fff"/>
    </g>
  </g>
</svg>
